<svg width="18" height="17" viewBox="0 0 18 17" fill="none" xmlns="http://www.w3.org/2000/svg">
<path d="M17.5 8.50049C17.5 8.87632 17.3559 9.23962 17.0864 9.5027C16.8233 9.77204 16.4598 9.92237 16.0839 9.92237H10.4193V15.5849C10.4193 15.9607 10.2689 16.324 9.99945 16.5871C9.73627 16.8502 9.3791 17.0005 9.00313 17.0005C8.62716 17.0005 8.26373 16.8502 8.00055 16.5871C7.73111 16.324 7.58072 15.9607 7.58072 15.5849V9.92237H1.91614C1.54018 9.92237 1.17674 9.77204 0.913564 9.5027C0.650387 9.23962 0.5 8.87632 0.5 8.50049C0.5 8.12466 0.650387 7.76762 0.913564 7.49828C1.17674 7.2352 1.54018 7.08487 1.91614 7.08487H7.58072V1.42237C7.58072 1.04655 7.73111 0.683244 8.00055 0.420164C8.26373 0.15082 8.62716 0.000488281 9.00313 0.000488281C9.3791 0.000488281 9.73627 0.15082 9.99945 0.420164C10.2689 0.683244 10.4193 1.04655 10.4193 1.42237V7.08487H16.0839C16.4598 7.08487 16.8233 7.2352 17.0864 7.49828C17.3559 7.76762 17.5 8.12466 17.5 8.50049Z" fill="white"/>
</svg>
