<svg width="21" height="20" viewBox="0 0 21 20" fill="none" xmlns="http://www.w3.org/2000/svg">
<path d="M15.5203 7.64898L16.9875 6.18179C18.8603 7.26224 20.1073 8.75535 20.1073 10.4099C20.1073 13.7131 15.1655 16.3833 10.1399 16.3903C9.11725 16.3902 8.09738 16.2833 7.09691 16.0714L8.8382 14.3311C9.26281 14.3749 9.69738 14.3979 10.1369 14.3969H10.1389C9.72529 14.3969 9.3266 14.3341 8.95183 14.2174L10.9264 12.2419C11.3948 12.0406 11.7706 11.6648 11.9729 11.1963L13.9465 9.22182C14.1323 9.81699 14.1759 10.4474 14.0739 11.0625C13.9718 11.6776 13.7269 12.2602 13.3589 12.7635C12.9908 13.2668 12.5098 13.6767 11.9546 13.9604C11.3994 14.244 10.7854 14.3935 10.1619 14.3969C14.393 14.3819 18.1138 12.22 18.1138 10.4099C18.1138 9.47001 17.0951 8.43041 15.5203 7.64898ZM6.24869 11.2821C6.11806 10.6994 6.11999 10.0948 6.25433 9.51297C6.38868 8.93113 6.652 8.3869 7.02486 7.92047C7.39771 7.45404 7.87058 7.07732 8.40854 6.81813C8.9465 6.55895 9.53581 6.42391 10.133 6.423C5.92874 6.40804 2.16607 8.59388 2.16607 10.4099C2.16607 11.303 3.06712 12.2808 4.48547 13.0453L3.03223 14.4965C1.3029 13.428 0.172607 11.9897 0.172607 10.4099C0.172607 7.10675 5.14032 4.41259 10.1399 4.42953C11.0509 4.43252 11.961 4.52322 12.8401 4.69067L11.0689 6.46087C10.7798 6.43894 10.4868 6.42599 10.1918 6.423C10.4728 6.42698 10.7469 6.45987 11.0121 6.51868L6.24769 11.2821H6.24869ZM19.2022 1.14729C19.3891 1.3342 19.4941 1.58768 19.4941 1.85198C19.4941 2.11628 19.3891 2.36975 19.2022 2.55667L2.28767 19.4712C2.1958 19.5665 2.08587 19.6425 1.9643 19.6948C1.84273 19.7471 1.71196 19.7747 1.57962 19.776C1.44727 19.7772 1.31601 19.7521 1.19348 19.7021C1.07095 19.652 0.95961 19.5781 0.865959 19.4846C0.772308 19.3911 0.698219 19.2798 0.648016 19.1574C0.597812 19.0349 0.5725 18.9037 0.573556 18.7713C0.574611 18.639 0.602013 18.5082 0.654163 18.3865C0.706313 18.2649 0.782167 18.1549 0.877297 18.0628L17.7919 1.14829C17.8844 1.05561 17.9944 0.982095 18.1154 0.931935C18.2364 0.881775 18.3661 0.855957 18.497 0.855957C18.628 0.855957 18.7577 0.881775 18.8787 0.931935C18.9997 0.982095 19.1097 1.05561 19.2022 1.14829V1.14729Z" fill="#7C7C7C"/>
</svg>
