<svg width="21" height="15" viewBox="0 0 21 15" fill="none" xmlns="http://www.w3.org/2000/svg">
<path d="M19.1267 3.65719L19.1264 3.65754L9.20416 13.6338C8.83376 13.9859 8.34696 14.1908 7.85389 14.1908C7.35731 14.1908 6.87344 13.9835 6.52887 13.6378L1.55495 8.64747C1.21772 8.30913 1.02446 7.82626 1.02446 7.316C1.02446 6.8259 1.22468 6.35879 1.57638 5.98467C1.93932 5.64151 2.40359 5.45077 2.90906 5.43151C3.40533 5.43344 3.8666 5.62131 4.2304 5.96719L7.53517 9.28282L7.85389 9.60259L8.17261 9.28282L16.4513 0.976911C16.8151 0.631031 17.2764 0.44316 17.7726 0.441226C18.2806 0.460589 18.7438 0.652893 19.1054 1.01566C19.4532 1.36463 19.6572 1.83053 19.6572 2.32572C19.6572 2.83598 19.464 3.31885 19.1267 3.65719Z" fill="#53B175" stroke="#FCFCFC" stroke-width="0.9"/>
</svg>
