<svg width="11" height="19" viewBox="0 0 11 19" fill="none" xmlns="http://www.w3.org/2000/svg">
<g clip-path="url(#clip0_1_410)">
<path d="M0.666502 2.67603C0.431822 2.41888 0.301445 2.08054 0.314482 1.72866C0.314482 1.37678 0.44486 1.05197 0.692579 0.794824C0.927259 0.551215 1.2532 0.402343 1.59219 0.402343C1.93117 0.402343 2.25712 0.524148 2.50483 0.767757L9.88423 8.42791C10.0016 8.54971 10.0928 8.69858 10.158 8.86099C10.2232 9.0234 10.2623 9.19934 10.2623 9.37528C10.2623 9.55122 10.2232 9.72716 10.158 9.9031C10.0928 10.0655 10.0016 10.2144 9.88423 10.3362L2.50483 17.9963C2.38749 18.1181 2.24408 18.2264 2.08762 18.2941C1.91813 18.3617 1.74864 18.4023 1.57915 18.4023C1.40966 18.4023 1.22713 18.3753 1.07067 18.3076C0.91422 18.2399 0.770803 18.1317 0.640426 18.0099C0.523086 17.8881 0.431821 17.7257 0.366632 17.5632C0.288405 17.4008 0.262329 17.2249 0.262329 17.0354C0.262329 16.8595 0.301443 16.6835 0.366632 16.5211C0.431821 16.3587 0.536123 16.2099 0.666501 16.0745L7.12022 9.37528L5.89466 8.11663L0.666502 2.67603Z" fill="#FFF9FF"/>
</g>
<defs>
<clipPath id="clip0_1_410">
<rect width="10" height="18" fill="white" transform="translate(10.2623 18.4023) rotate(-180)"/>
</clipPath>
</defs>
</svg>
